{"title":"Eminem - Survival (Explicit)","uid":9019255,"size":180370529,"categoryP":"video","categoryS":"music_videos","magnet":"?xt=urn:btih:2d264d79ed6a6213b88011a7e5dd842a127bd280&amp;dn=Eminem+-+Survival+%28Explicit%29&amp;tr=udp%3A%2F%2Ftracker.openbittorrent.com%3A80&amp;tr=udp%3A%2F%2Fopen.demonii.com%3A1337&amp;tr=udp%3A%2F%2Ftracker.coppersurfer.tk%3A6969&amp;tr=udp%3A%2F%2Fexodus.desync.com%3A6969","seeders":1,"leechers":0,"uploader":"mediterraneanu","files":-1,"time":1381261367,"description":"Music video by Eminem performing Survival (Explicit).\n\nGeneral\nComplete name : Eminem - Survival (Explicit).mp4\nFormat : MPEG-4\nFormat profile : Base Media / Version 2\nCodec ID : mp42\nFile size : 172 MiB\nDuration : 4mn 31s\nOverall bit rate mode : Variable\nOverall bit rate : 5 313 Kbps\nEncoded date : UTC 2013-10-07 15:55:04\nTagged date : UTC 2013-10-07 15:55:04\ngsst : 0\ngstd : 271626\ngssd : B4A7D0BE1HH1381252849583986\ngshh :\n\nVideo\nID : 1\nFormat : AVC\nFormat/Info : Advanced Video Codec\nFormat profile : &lt;a class=&quot;__cf_email__&quot; href=&quot;/cdn-cgi/l/email-protection&quot; data-cfemail=&quot;a8e0c1cfc0e8e49c8698&quot;&gt;[email&amp;#160;protected]&lt;/a&gt;&lt;script cf-hash='f9e31' type=&quot;text/javascript&quot;&gt;\n/* &lt;![CDATA[ */!function(){try{var t=&quot;currentScript&quot;in document?document.currentScript:function(){for(var t=document.getElementsByTagName(&quot;script&quot;),e=t.length;e--;)if(t[e].getAttribute(&quot;cf-hash&quot;))return t[e]}();if(t&amp;&amp;t.previousSibling){var e,r,n,i,c=t.previousSibling,a=c.getAttribute(&quot;data-cfemail&quot;);if(a){for(e=&quot;&quot;,r=parseInt(a.substr(0,2),16),n=2;a.length-n;n+=2)i=parseInt(a.substr(n,2),16)^r,e+=String.fromCharCode(i);e=document.createTextNode(e),c.parentNode.replaceChild(e,c)}}}catch(u){}}();/* ]]&gt; */&lt;/script&gt;\nFormat settings, CABAC : Yes\nFormat settings, ReFrames : 1 frame\nCodec ID : avc1\nCodec ID/Info : Advanced Video Coding\nDuration : 4mn 31s\nBit rate : 5 119 Kbps\nMaximum bit rate : 12.5 Mbps\nWidth : 1 920 pixels\nHeight : 1 080 pixels\nDisplay aspect ratio : 16:9\nFrame rate mode : Constant\nFrame rate : 23.976 fps\nColor space : YUV\nChroma subsampling : 4:2:0\nBit depth : 8 bits\nScan type : Progressive\nBits/(Pixel*Frame) : 0.103\nStream size : 166 MiB (96%)\nTagged date : UTC 2013-10-07 15:58:22\n\nAudio\nID : 2\nFormat : AAC\nFormat/Info : Advanced Audio Codec\nFormat profile : LC\nCodec ID : 40\nDuration : 4mn 31s\nBit rate mode : Variable\nBit rate : 192 Kbps\nMaximum bit rate : 202 Kbps\nChannel(s) : 2 channels\nChannel positions : Front: L R\nSampling rate : 44.1 KHz\nCompression mode : Lossy\nStream size : 6.22 MiB (4%)\nEncoded date : UTC 2013-10-07 15:55:57\nTagged date : UTC 2013-10-07 15:58:22","torrent":{"xt":"urn:btih:2d264d79ed6a6213b88011a7e5dd842a127bd280","amp;dn":"Eminem+-+Survival+%28Explicit%29","amp;tr":["udp%3A%2F%2Ftracker.openbittorrent.com%3A80","udp%3A%2F%2Fopen.demonii.com%3A1337","udp%3A%2F%2Ftracker.coppersurfer.tk%3A6969","udp%3A%2F%2Fexodus.desync.com%3A6969"],"infoHash":"2d264d79ed6a6213b88011a7e5dd842a127bd280","infoHashBuffer":{"type":"Buffer","data":[45,38,77,121,237,106,98,19,184,128,17,167,229,221,132,42,18,123,210,128]},"announce":[],"urlList":[]}}